<mxfile host="app.diagrams.net" modified="2024-03-23T14:17:31.299Z" agent="Mozilla/5.0 (Macintosh; Intel Mac OS X 10_15_7) AppleWebKit/605.1.15 (KHTML, like Gecko) Version/17.3 Safari/605.1.15" etag="Z93cGwXnsEhTqS7bXF3e" version="24.0.8" type="github">
  <diagram id="R2lEEEUBdFMjLlhIrx00" name="Page-1">
    <mxGraphModel dx="1027" dy="529" grid="1" gridSize="10" guides="1" tooltips="1" connect="1" arrows="1" fold="1" page="1" pageScale="1" pageWidth="850" pageHeight="1100" math="0" shadow="0" extFonts="Permanent Marker^https://fonts.googleapis.com/css?family=Permanent+Marker">
      <root>
        <mxCell id="0" />
        <mxCell id="1" parent="0" />
        <mxCell id="Ls6Hd5Uxga7sao89NUcp-18" style="edgeStyle=orthogonalEdgeStyle;rounded=0;orthogonalLoop=1;jettySize=auto;html=1;entryX=0;entryY=0.5;entryDx=0;entryDy=0;" edge="1" parent="1" source="Ls6Hd5Uxga7sao89NUcp-2" target="Ls6Hd5Uxga7sao89NUcp-12">
          <mxGeometry relative="1" as="geometry" />
        </mxCell>
        <mxCell id="Ls6Hd5Uxga7sao89NUcp-2" value="" style="swimlane;startSize=0;" vertex="1" parent="1">
          <mxGeometry x="30" y="70" width="190" height="430" as="geometry" />
        </mxCell>
        <mxCell id="Ls6Hd5Uxga7sao89NUcp-1" value="Cloud" style="ellipse;shape=cloud;whiteSpace=wrap;html=1;" vertex="1" parent="Ls6Hd5Uxga7sao89NUcp-2">
          <mxGeometry x="30" y="20" width="120" height="80" as="geometry" />
        </mxCell>
        <mxCell id="Ls6Hd5Uxga7sao89NUcp-5" value="Databases" style="shape=cylinder3;whiteSpace=wrap;html=1;boundedLbl=1;backgroundOutline=1;size=15;" vertex="1" parent="Ls6Hd5Uxga7sao89NUcp-2">
          <mxGeometry x="40" y="130" width="100" height="140" as="geometry" />
        </mxCell>
        <mxCell id="Ls6Hd5Uxga7sao89NUcp-6" value="Files" style="shape=note;whiteSpace=wrap;html=1;backgroundOutline=1;darkOpacity=0.05;" vertex="1" parent="Ls6Hd5Uxga7sao89NUcp-2">
          <mxGeometry x="50" y="300" width="80" height="100" as="geometry" />
        </mxCell>
        <mxCell id="Ls6Hd5Uxga7sao89NUcp-3" value="Source Layer" style="text;html=1;align=center;verticalAlign=middle;resizable=0;points=[];autosize=1;strokeColor=none;fillColor=none;fontSize=20;fontStyle=1" vertex="1" parent="1">
          <mxGeometry x="50" y="23" width="140" height="40" as="geometry" />
        </mxCell>
        <mxCell id="Ls6Hd5Uxga7sao89NUcp-7" value="DWH Greenplum" style="shape=cylinder3;whiteSpace=wrap;html=1;boundedLbl=1;backgroundOutline=1;size=15;" vertex="1" parent="1">
          <mxGeometry x="290" y="110" width="210" height="360" as="geometry" />
        </mxCell>
        <mxCell id="Ls6Hd5Uxga7sao89NUcp-9" value="" style="swimlane;startSize=0;" vertex="1" parent="1">
          <mxGeometry x="580" y="70" width="200" height="430" as="geometry" />
        </mxCell>
        <mxCell id="Ls6Hd5Uxga7sao89NUcp-20" value="Excel" style="shape=note;whiteSpace=wrap;html=1;backgroundOutline=1;darkOpacity=0.05;" vertex="1" parent="Ls6Hd5Uxga7sao89NUcp-9">
          <mxGeometry x="70" y="20" width="80" height="100" as="geometry" />
        </mxCell>
        <mxCell id="Ls6Hd5Uxga7sao89NUcp-21" value="Superset" style="ellipse;whiteSpace=wrap;html=1;" vertex="1" parent="Ls6Hd5Uxga7sao89NUcp-9">
          <mxGeometry x="50" y="170" width="120" height="80" as="geometry" />
        </mxCell>
        <mxCell id="Ls6Hd5Uxga7sao89NUcp-22" value="Metabase" style="shape=cube;whiteSpace=wrap;html=1;boundedLbl=1;backgroundOutline=1;darkOpacity=0.05;darkOpacity2=0.1;" vertex="1" parent="Ls6Hd5Uxga7sao89NUcp-9">
          <mxGeometry x="50" y="300" width="120" height="80" as="geometry" />
        </mxCell>
        <mxCell id="Ls6Hd5Uxga7sao89NUcp-10" value="BI Layer" style="text;html=1;align=center;verticalAlign=middle;resizable=0;points=[];autosize=1;strokeColor=none;fillColor=none;fontSize=20;fontStyle=1" vertex="1" parent="1">
          <mxGeometry x="645" y="23" width="100" height="40" as="geometry" />
        </mxCell>
        <mxCell id="Ls6Hd5Uxga7sao89NUcp-11" value="DW Layer" style="text;html=1;align=center;verticalAlign=middle;resizable=0;points=[];autosize=1;strokeColor=none;fillColor=none;fontSize=20;fontStyle=1" vertex="1" parent="1">
          <mxGeometry x="315" y="23" width="110" height="40" as="geometry" />
        </mxCell>
        <mxCell id="Ls6Hd5Uxga7sao89NUcp-16" style="edgeStyle=orthogonalEdgeStyle;rounded=0;orthogonalLoop=1;jettySize=auto;html=1;entryX=0.5;entryY=0;entryDx=0;entryDy=0;" edge="1" parent="1" source="Ls6Hd5Uxga7sao89NUcp-12" target="Ls6Hd5Uxga7sao89NUcp-13">
          <mxGeometry relative="1" as="geometry" />
        </mxCell>
        <mxCell id="Ls6Hd5Uxga7sao89NUcp-12" value="STG" style="rounded=1;whiteSpace=wrap;html=1;" vertex="1" parent="1">
          <mxGeometry x="340" y="170" width="120" height="60" as="geometry" />
        </mxCell>
        <mxCell id="Ls6Hd5Uxga7sao89NUcp-17" value="" style="edgeStyle=orthogonalEdgeStyle;rounded=0;orthogonalLoop=1;jettySize=auto;html=1;" edge="1" parent="1" source="Ls6Hd5Uxga7sao89NUcp-13" target="Ls6Hd5Uxga7sao89NUcp-14">
          <mxGeometry relative="1" as="geometry" />
        </mxCell>
        <mxCell id="Ls6Hd5Uxga7sao89NUcp-13" value="DM" style="rounded=1;whiteSpace=wrap;html=1;" vertex="1" parent="1">
          <mxGeometry x="340" y="270" width="120" height="60" as="geometry" />
        </mxCell>
        <mxCell id="Ls6Hd5Uxga7sao89NUcp-19" style="edgeStyle=orthogonalEdgeStyle;rounded=0;orthogonalLoop=1;jettySize=auto;html=1;entryX=0;entryY=0.5;entryDx=0;entryDy=0;" edge="1" parent="1" source="Ls6Hd5Uxga7sao89NUcp-14" target="Ls6Hd5Uxga7sao89NUcp-9">
          <mxGeometry relative="1" as="geometry" />
        </mxCell>
        <mxCell id="Ls6Hd5Uxga7sao89NUcp-14" value="MART" style="rounded=1;whiteSpace=wrap;html=1;" vertex="1" parent="1">
          <mxGeometry x="340" y="370" width="120" height="60" as="geometry" />
        </mxCell>
        <mxCell id="Ls6Hd5Uxga7sao89NUcp-23" value="GreenPlum" style="text;html=1;align=center;verticalAlign=middle;resizable=0;points=[];autosize=1;strokeColor=none;fillColor=none;" vertex="1" parent="1">
          <mxGeometry x="355" y="110" width="80" height="30" as="geometry" />
        </mxCell>
      </root>
    </mxGraphModel>
  </diagram>
</mxfile>
